<svg width="247" height="92" viewBox="0 0 247 92" fill="none" xmlns="http://www.w3.org/2000/svg">
<path d="M186.734 78.1983C186.392 78.1983 186.037 78.1457 185.669 78.0406C185.327 77.9617 184.973 77.8171 184.605 77.6069C184.184 77.4754 183.829 77.16 183.54 76.6606C183.487 76.5817 183.461 76.4897 183.461 76.3846C183.461 76.2006 183.527 76.1086 183.658 76.1086C183.79 76.1086 183.895 76.1874 183.974 76.3451V76.3057C184.131 76.6211 184.355 76.8183 184.644 76.8971C185.091 77.16 185.59 77.2914 186.142 77.2914C187.01 77.2914 187.811 76.9234 188.547 76.1874C189.31 75.4777 189.993 74.5183 190.598 73.3091C191.229 72.0737 191.781 70.7069 192.254 69.2086C192.727 67.684 193.121 66.12 193.437 64.5166C193.778 62.9131 194.028 61.3754 194.186 59.9034C194.37 58.4314 194.462 57.1434 194.462 56.0394V55.724C193.147 55.908 191.833 56.1314 190.519 56.3943C189.231 56.6571 187.969 56.9594 186.734 57.3011C185.893 57.5114 184.933 57.84 183.855 58.2869C182.778 58.7074 181.753 59.1806 180.78 59.7063C179.834 60.2057 179.111 60.7051 178.611 61.2046C178.506 61.3097 178.414 61.3097 178.335 61.2046C178.257 61.0731 178.217 60.9154 178.217 60.7314C178.217 60.3897 178.322 60.1006 178.533 59.864C178.874 59.496 179.439 59.1017 180.228 58.6811C181.017 58.2343 181.792 57.8531 182.554 57.5377C183.185 57.2486 184.118 56.9594 185.354 56.6703C186.589 56.3549 187.995 56.0657 189.573 55.8029C191.15 55.5137 192.766 55.2771 194.422 55.0931C194.37 54.0943 194.238 53.424 194.028 53.0823C193.923 52.9509 193.87 52.8326 193.87 52.7274C193.87 52.5697 193.962 52.4909 194.146 52.4909C194.33 52.4909 194.475 52.5697 194.58 52.7274C194.869 53.2269 195.066 53.9891 195.171 55.0143C196.091 54.9354 196.998 54.8697 197.892 54.8171C198.812 54.7646 199.693 54.7383 200.534 54.7383C202.032 54.7383 203.373 54.8303 204.555 55.0143C205.765 55.1983 206.698 55.5137 207.355 55.9606C208.012 56.3811 208.301 56.9594 208.222 57.6954C208.17 57.9583 208.065 58.0897 207.907 58.0897C207.775 58.0897 207.71 57.9583 207.71 57.6954C207.736 57.4851 207.591 57.2617 207.276 57.0251C206.961 56.7623 206.698 56.6046 206.487 56.552C205.331 56.1314 204.122 55.8291 202.86 55.6451C201.625 55.4611 200.363 55.3691 199.075 55.3691C198.444 55.3691 197.8 55.3954 197.143 55.448C196.512 55.5006 195.868 55.5531 195.211 55.6057C195.237 55.8686 195.25 56.1577 195.25 56.4731C195.277 56.7623 195.29 57.0646 195.29 57.38C195.29 58.8783 195.171 60.5606 194.935 62.4269C194.725 64.2669 194.383 66.1069 193.91 67.9469C193.463 69.7869 192.898 71.4823 192.214 73.0331C191.531 74.584 190.729 75.8326 189.809 76.7789C188.915 77.7251 187.89 78.1983 186.734 78.1983ZM200.95 75.3594C200.608 75.3594 200.345 75.2149 200.161 74.9257C200.003 74.6366 199.898 74.308 199.846 73.94C199.819 73.572 199.819 73.2829 199.846 73.0726C200.003 71.8634 200.411 70.6543 201.068 69.4451C201.725 68.236 202.54 67.1583 203.512 66.212C204.511 65.2657 205.563 64.6086 206.667 64.2406C206.877 64.1617 207.061 64.1091 207.219 64.0829C207.403 64.0566 207.574 64.0434 207.731 64.0434C208.546 64.0434 208.954 64.3589 208.954 64.9897C208.954 65.3051 208.848 65.6206 208.638 65.936L208.323 66.4486C208.296 66.5274 208.257 66.5669 208.204 66.5669C208.152 66.5669 208.112 66.5274 208.086 66.4486C208.06 66.3697 208.073 66.2909 208.126 66.212C208.178 66.1331 208.218 66.0543 208.244 65.9754C208.296 65.8966 208.349 65.8177 208.402 65.7389C208.533 65.476 208.599 65.2789 208.599 65.1474C208.599 64.9634 208.52 64.8451 208.362 64.7926C208.231 64.7137 208.06 64.6743 207.85 64.6743C207.744 64.6743 207.626 64.6874 207.495 64.7137C207.39 64.7137 207.284 64.7269 207.179 64.7531C206.627 64.9371 206.141 65.1737 205.72 65.4629C205.326 65.752 204.932 66.12 204.538 66.5669C204.064 67.0663 203.552 67.7234 203 68.5383C202.448 69.3269 201.962 70.1286 201.541 70.9434C201.147 71.7583 200.91 72.4811 200.831 73.112C200.779 73.2697 200.752 73.5194 200.752 73.8611C200.752 74.0977 200.779 74.3474 200.831 74.6103C200.91 74.8469 201.042 74.9651 201.226 74.9651C201.462 74.9651 201.686 74.8469 201.896 74.6103C202.106 74.3737 202.277 74.1766 202.408 74.0189C202.855 73.388 203.355 72.5994 203.907 71.6531C204.459 70.7069 204.892 69.8131 205.208 68.972L205.287 68.5383C205.339 68.328 205.444 68.0914 205.602 67.8286C205.76 67.5657 205.983 67.4343 206.272 67.4343C206.509 67.4343 206.627 67.5657 206.627 67.8286C206.627 67.8549 206.614 67.8811 206.588 67.9074C206.588 67.9337 206.588 67.96 206.588 67.9863C206.483 68.5909 206.404 69.1954 206.351 69.8C206.299 70.3783 206.272 70.9697 206.272 71.5743C206.272 72.652 206.378 73.4537 206.588 73.9794C206.798 74.4789 207.061 74.7286 207.376 74.7286C207.692 74.7286 208.034 74.5577 208.402 74.216C208.796 73.8743 209.164 73.4931 209.506 73.0726C209.874 72.6257 210.15 72.284 210.334 72.0474L211.201 70.8646C211.28 70.7594 211.346 70.7069 211.398 70.7069C211.451 70.7069 211.477 70.7463 211.477 70.8251C211.477 70.9566 211.451 71.0617 211.398 71.1406C211.135 71.5874 210.82 72.0606 210.452 72.56C210.11 73.0331 209.716 73.5326 209.269 74.0583C208.927 74.4789 208.546 74.8337 208.126 75.1229C207.705 75.412 207.311 75.5566 206.943 75.5566C206.601 75.5566 206.286 75.3989 205.996 75.0834C205.707 74.768 205.471 74.2291 205.287 73.4669C205.234 73.1777 205.182 72.7571 205.129 72.2051C205.103 71.6269 205.103 71.0354 205.129 70.4309C204.971 70.8251 204.748 71.2983 204.459 71.8503C204.17 72.4023 203.828 72.9543 203.434 73.5063C203.066 74.032 202.658 74.4789 202.211 74.8469C201.791 75.1886 201.37 75.3594 200.95 75.3594ZM213.308 75.9903C213.203 75.9903 212.966 75.9771 212.598 75.9509C212.257 75.9246 212.059 75.8589 212.007 75.7537C212.007 75.7537 211.981 75.7143 211.928 75.6354L211.849 75.4777C211.849 75.4251 211.928 75.3989 212.086 75.3989C212.349 75.3989 212.585 75.3989 212.795 75.3989C213.032 75.3726 213.269 75.3594 213.505 75.3594C213.742 75.3594 214.031 75.32 214.373 75.2411C214.714 75.136 215.017 74.9914 215.279 74.8074C215.542 74.5971 215.674 74.3474 215.674 74.0583C215.674 73.8743 215.595 73.6903 215.437 73.5063C215.306 73.296 215.174 73.1383 215.043 73.0331C214.517 72.6914 213.965 72.3234 213.387 71.9291C212.809 71.5349 212.322 71.0749 211.928 70.5491C211.534 69.9971 211.337 69.3663 211.337 68.6566C211.337 67.9469 211.56 67.2371 212.007 66.5274C212.48 65.7914 213.085 65.1211 213.821 64.5166C214.557 63.912 215.319 63.4257 216.107 63.0577C216.922 62.6634 217.671 62.4663 218.355 62.4663C218.802 62.4663 219.275 62.5977 219.774 62.8606C220.3 63.0971 220.563 63.4783 220.563 64.004C220.563 64.1617 220.497 64.3983 220.366 64.7137C220.261 65.0029 220.116 65.1474 219.932 65.1474C219.853 65.1474 219.801 65.108 219.774 65.0291C219.774 64.9503 219.774 64.8846 219.774 64.832C219.774 64.6743 219.787 64.5297 219.814 64.3983C219.84 64.2406 219.853 64.096 219.853 63.9646C219.853 63.4914 219.617 63.2549 219.143 63.2549C218.513 63.2549 217.816 63.4389 217.054 63.8069C216.291 64.1486 215.555 64.6086 214.846 65.1869C214.136 65.7651 213.558 66.4091 213.111 67.1189C212.664 67.8286 212.441 68.5383 212.441 69.248C212.441 69.8 212.664 70.3126 213.111 70.7857C213.558 71.2326 214.07 71.6663 214.649 72.0869C215.253 72.4811 215.779 72.8623 216.226 73.2303C216.673 73.5983 216.896 73.9794 216.896 74.3737C216.896 74.8206 216.659 75.1623 216.186 75.3989C215.739 75.6354 215.227 75.7931 214.649 75.872C214.097 75.9509 213.65 75.9903 213.308 75.9903ZM220.293 76.5029C220.188 76.5029 220.122 76.3451 220.096 76.0297C220.07 75.7406 220.057 75.5566 220.057 75.4777C220.057 74.5314 220.293 73.4143 220.766 72.1263C221.266 70.812 221.87 69.4583 222.58 68.0651C223.29 66.6457 224 65.3051 224.709 64.0434C225.445 62.7554 226.05 61.6777 226.523 60.8103C226.418 60.8891 226.234 60.9943 225.971 61.1257C225.708 61.2571 225.524 61.3229 225.419 61.3229C225.34 61.3229 225.301 61.2966 225.301 61.244C225.301 61.1389 225.353 61.0731 225.458 61.0469C225.642 60.968 225.8 60.8891 225.932 60.8103C226.089 60.7051 226.234 60.6 226.365 60.4949C226.944 60.048 227.469 59.5486 227.942 58.9966C228.416 58.4183 228.954 57.932 229.559 57.5377C229.612 57.5114 229.664 57.4851 229.717 57.4589C229.796 57.4063 229.861 57.38 229.914 57.38C230.045 57.38 230.124 57.4326 230.15 57.5377C230.177 57.6166 230.19 57.6954 230.19 57.7743C230.19 58.1949 230.032 58.5629 229.717 58.8783C228.876 59.7457 227.982 60.8366 227.036 62.1509C226.089 63.4389 225.182 64.8451 224.315 66.3697C223.448 67.868 222.685 69.3531 222.028 70.8251C221.397 72.2709 220.964 73.572 220.727 74.7286C221.253 74.0714 221.792 73.5194 222.344 73.0726C222.896 72.5994 223.474 72.1 224.078 71.5743C224.026 71.3377 223.96 71.0749 223.881 70.7857C223.802 70.4703 223.724 70.2206 223.645 70.0366C223.618 70.0103 223.605 69.9577 223.605 69.8789C223.605 69.7737 223.671 69.7211 223.802 69.7211C223.934 69.7211 224.092 69.7606 224.276 69.8394C224.433 69.892 224.617 70.0234 224.828 70.2337C225.038 70.4177 225.143 70.6149 225.143 70.8251C226.326 69.9051 227.548 69.0771 228.81 68.3411C228.678 68.3674 228.429 68.4463 228.061 68.5777C227.719 68.6829 227.377 68.788 227.036 68.8931C226.694 68.972 226.457 69.0114 226.326 69.0114C226.194 69.0114 226.129 68.972 226.129 68.8931C226.129 68.788 226.194 68.7354 226.326 68.7354C226.457 68.6829 226.576 68.6566 226.681 68.6566C226.812 68.6303 226.944 68.5909 227.075 68.5383C227.443 68.4069 227.877 68.2623 228.376 68.1046C228.902 67.9206 229.349 67.8286 229.717 67.8286C229.848 67.8286 229.927 67.8811 229.953 67.9863C229.98 68.0914 229.993 68.1834 229.993 68.2623C229.993 68.42 229.966 68.5909 229.914 68.7749C229.861 68.9326 229.769 69.064 229.638 69.1691C229.06 69.5897 228.324 69.9314 227.43 70.1943C226.562 70.4571 225.813 70.812 225.182 71.2589C225.209 71.4954 225.248 71.8634 225.301 72.3629C225.353 72.8623 225.445 73.3749 225.577 73.9006C225.708 74.4263 225.879 74.8731 226.089 75.2411C226.326 75.6091 226.615 75.7931 226.957 75.7931C227.482 75.7931 227.85 75.5697 228.061 75.1229C228.061 75.044 228.087 75.0046 228.14 75.0046C228.192 75.0046 228.218 75.044 228.218 75.1229C228.218 75.412 228.074 75.6749 227.785 75.9114C227.496 76.148 227.22 76.2663 226.957 76.2663C226.431 76.2663 225.971 76.0034 225.577 75.4777C225.182 74.9257 224.867 74.308 224.63 73.6246C224.42 72.9411 224.276 72.4154 224.197 72.0474C223.592 72.4943 222.948 73.0594 222.265 73.7429C221.608 74.4263 221.056 75.0834 220.609 75.7143C220.582 75.8194 220.556 75.9771 220.53 76.1874C220.53 76.3977 220.451 76.5029 220.293 76.5029Z" fill="#0A8967"/>
<path d="M0.0854286 41L13.754 11.1H16.8721L30.5407 41H27.209L14.651 12.9367H15.9324L3.37443 41H0.0854286ZM5.46743 33.0124L6.40714 30.4496H23.7919L24.7316 33.0124H5.46743ZM43.9493 41.2136C41.7282 41.2136 39.7349 40.7295 37.9693 39.7613C36.2323 38.7646 34.8654 37.412 33.8688 35.7034C32.8721 33.9664 32.3738 31.9873 32.3738 29.7661C32.3738 27.5165 32.8721 25.5374 33.8688 23.8289C34.8654 22.1203 36.2323 20.7819 37.9693 19.8137C39.7349 18.8455 41.7282 18.3614 43.9493 18.3614C45.8572 18.3614 47.58 18.7316 49.1178 19.472C50.6555 20.2124 51.8657 21.323 52.7485 22.8037L50.4846 24.3414C49.7158 23.2024 48.7618 22.3623 47.6228 21.8213C46.4837 21.2802 45.245 21.0097 43.9066 21.0097C42.3119 21.0097 40.8739 21.3799 39.5925 22.1203C38.311 22.8322 37.3001 23.8431 36.5598 25.153C35.8194 26.4629 35.4492 28.0006 35.4492 29.7661C35.4492 31.5317 35.8194 33.0694 36.5598 34.3793C37.3001 35.6892 38.311 36.7143 39.5925 37.4547C40.8739 38.1666 42.3119 38.5226 43.9066 38.5226C45.245 38.5226 46.4837 38.252 47.6228 37.711C48.7618 37.17 49.7158 36.3441 50.4846 35.2336L52.7485 36.7713C51.8657 38.2236 50.6555 39.3341 49.1178 40.103C47.58 40.8434 45.8572 41.2136 43.9493 41.2136ZM72.7591 41V36.0451L72.631 35.2336V26.947C72.631 25.0391 72.0899 23.5726 71.0078 22.5474C69.9542 21.5223 68.3738 21.0097 66.2665 21.0097C64.8143 21.0097 63.4332 21.2518 62.1233 21.7359C60.8134 22.22 59.7028 22.8607 58.7915 23.658L57.4247 21.3941C58.5637 20.426 59.9306 19.6856 61.5253 19.173C63.1199 18.632 64.8 18.3614 66.5655 18.3614C69.4701 18.3614 71.7055 19.0876 73.2717 20.5399C74.8664 21.9637 75.6637 24.1421 75.6637 27.0751V41H72.7591ZM65.0278 41.2136C63.3477 41.2136 61.8812 40.943 60.6283 40.402C59.4038 39.8325 58.4641 39.0636 57.8091 38.0954C57.1542 37.0988 56.8267 35.9597 56.8267 34.6783C56.8267 33.5108 57.0972 32.4571 57.6383 31.5174C58.2078 30.5492 59.119 29.7804 60.372 29.2109C61.6534 28.6129 63.362 28.3139 65.4977 28.3139H73.229V30.5777H65.5831C63.4189 30.5777 61.9097 30.9621 61.0554 31.731C60.2296 32.4999 59.8167 33.4538 59.8167 34.5929C59.8167 35.8743 60.315 36.8994 61.3117 37.6683C62.3084 38.4371 63.7037 38.8216 65.4977 38.8216C67.2063 38.8216 68.6728 38.4371 69.8973 37.6683C71.1502 36.871 72.0615 35.7319 72.631 34.2511L73.3144 36.3441C72.7449 37.8249 71.7482 39.0067 70.3244 39.8894C68.9291 40.7722 67.1635 41.2136 65.0278 41.2136ZM92.8282 41.2136C90.6924 41.2136 88.7703 40.7295 87.0617 39.7613C85.3816 38.7931 84.0575 37.4547 83.0893 35.7461C82.1211 34.0091 81.637 32.0158 81.637 29.7661C81.637 27.488 82.1211 25.4947 83.0893 23.7861C84.0575 22.0776 85.3816 20.7534 87.0617 19.8137C88.7703 18.8455 90.6924 18.3614 92.8282 18.3614C94.793 18.3614 96.5443 18.8028 98.082 19.6856C99.6482 20.5683 100.887 21.864 101.798 23.5726C102.738 25.2527 103.208 27.3172 103.208 29.7661C103.208 32.1866 102.752 34.2511 101.841 35.9597C100.93 37.6683 99.6909 38.9782 98.1247 39.8894C96.587 40.7722 94.8215 41.2136 92.8282 41.2136ZM93.0417 38.5226C94.6364 38.5226 96.0602 38.1666 97.3132 37.4547C98.5946 36.7143 99.5913 35.6892 100.303 34.3793C101.044 33.0409 101.414 31.5032 101.414 29.7661C101.414 28.0006 101.044 26.4629 100.303 25.153C99.5913 23.8431 98.5946 22.8322 97.3132 22.1203C96.0602 21.3799 94.6364 21.0097 93.0417 21.0097C91.4755 21.0097 90.066 21.3799 88.813 22.1203C87.5601 22.8322 86.5634 23.8431 85.823 25.153C85.0826 26.4629 84.7124 28.0006 84.7124 29.7661C84.7124 31.5032 85.0826 33.0409 85.823 34.3793C86.5634 35.6892 87.5601 36.7143 88.813 37.4547C90.066 38.1666 91.4755 38.5226 93.0417 38.5226ZM101.499 41V34.2511L101.798 29.7234L101.371 25.1957V9.306H104.404V41H101.499ZM122.375 41.2136C120.04 41.2136 117.99 40.7295 116.224 39.7613C114.459 38.7646 113.078 37.412 112.081 35.7034C111.084 33.9664 110.586 31.9873 110.586 29.7661C110.586 27.545 111.056 25.5801 111.996 23.8716C112.964 22.163 114.274 20.8246 115.925 19.8564C117.605 18.8598 119.485 18.3614 121.564 18.3614C123.671 18.3614 125.536 18.8455 127.159 19.8137C128.811 20.7534 130.106 22.0918 131.046 23.8289C131.986 25.5374 132.456 27.5165 132.456 29.7661C132.456 29.9085 132.441 30.0651 132.413 30.236C132.413 30.3784 132.413 30.535 132.413 30.7059H112.893V28.442H130.79L129.594 29.339C129.594 27.7159 129.238 26.2778 128.526 25.0249C127.843 23.7434 126.903 22.7468 125.707 22.0349C124.511 21.323 123.13 20.967 121.564 20.967C120.026 20.967 118.645 21.323 117.42 22.0349C116.196 22.7468 115.242 23.7434 114.558 25.0249C113.875 26.3063 113.533 27.7728 113.533 29.4244V29.8943C113.533 31.6029 113.903 33.1121 114.644 34.422C115.413 35.7034 116.466 36.7143 117.805 37.4547C119.172 38.1666 120.723 38.5226 122.461 38.5226C123.827 38.5226 125.095 38.2805 126.262 37.7964C127.458 37.3123 128.483 36.572 129.338 35.5753L131.046 37.5401C130.049 38.7361 128.796 39.6474 127.287 40.2739C125.806 40.9003 124.169 41.2136 122.375 41.2136ZM166.649 18.3614C168.472 18.3614 170.052 18.7174 171.39 19.4293C172.757 20.1127 173.811 21.1663 174.551 22.5901C175.32 24.014 175.705 25.808 175.705 27.9721V41H172.672V28.2711C172.672 25.9076 172.102 24.1279 170.963 22.9319C169.853 21.7074 168.272 21.0951 166.222 21.0951C164.684 21.0951 163.346 21.4226 162.207 22.0776C161.096 22.704 160.228 23.6295 159.601 24.854C159.003 26.05 158.704 27.5023 158.704 29.2109V41H155.672V28.2711C155.672 25.9076 155.102 24.1279 153.963 22.9319C152.824 21.7074 151.229 21.0951 149.179 21.0951C147.67 21.0951 146.346 21.4226 145.207 22.0776C144.068 22.704 143.185 23.6295 142.558 24.854C141.96 26.05 141.661 27.5023 141.661 29.2109V41H138.629V18.575H141.533V24.6404L141.063 23.5726C141.747 21.9494 142.843 20.6822 144.352 19.771C145.89 18.8313 147.698 18.3614 149.777 18.3614C151.97 18.3614 153.835 18.9167 155.373 20.0273C156.91 21.1094 157.907 22.7468 158.363 24.9394L157.167 24.4696C157.822 22.6471 158.975 21.1806 160.626 20.07C162.307 18.931 164.314 18.3614 166.649 18.3614ZM183.683 49.5001C182.629 49.5001 181.618 49.3293 180.65 48.9876C179.71 48.6459 178.899 48.1333 178.215 47.4499L179.625 45.186C180.194 45.727 180.807 46.14 181.462 46.4247C182.145 46.738 182.9 46.8946 183.725 46.8946C184.722 46.8946 185.576 46.6098 186.288 46.0403C187.029 45.4992 187.726 44.531 188.381 43.1357L189.834 39.8467L190.175 39.3769L199.402 18.575H202.392L191.158 43.691C190.531 45.1433 189.834 46.2966 189.065 47.1509C188.324 48.0051 187.513 48.6031 186.63 48.9449C185.747 49.315 184.765 49.5001 183.683 49.5001ZM189.663 41.6407L179.326 18.575H182.487L191.628 39.1633L189.663 41.6407Z" fill="black"/>
</svg>
